<svg xmlns="http://www.w3.org/2000/svg" xmlns:xlink="http://www.w3.org/1999/xlink" width="50px" height="50px">
<circle fill="rgba(0,0,0,0.15)" cx="25" cy="25" r="25"/>
<path fill="#FFFFFF" d="M42.964,25.201c-0.066-0.165-0.063-0.045-0.249-0.045h-4.149c-0.053-3.408-1.405-6.909-3.86-9.315
	c-0.014-0.014-0.018-0.024-0.043-0.04l-0.003-0.003l-0.001-0.001l-0.009-0.009l-0.003-0.003l-0.007-0.007l-0.013-0.012
	c-5.237-5.05-13.705-5.017-18.893,0.071c2.269,2.225,2.344,2.391,3.376,3.403c3.371-3.306,8.791-3.321,12.129-0.087
	c1.626,1.594,2.5,3.814,2.54,6.003h-3.83c-0.154-0.039-0.341-0.153-0.461-0.035c-0.179,0.176-0.179,0.461,0,0.637l0.014,0.014
	l6.319,6.197c0.177,0.173,0.469,0.175,0.649-0.001l6.396-6.273C43.001,25.563,43.035,25.368,42.964,25.201z M30.889,30.76
	c-3.37,3.305-8.79,3.321-12.127,0.084c-1.626-1.595-2.502-3.814-2.54-6.002h3.83c0.15,0.043,0.339,0.155,0.46,0.035
	c0.179-0.176,0.179-0.461,0-0.637l-0.015-0.015l-6.317-6.196c-0.179-0.175-0.47-0.176-0.649,0l-6.397,6.275
	c-0.132,0.129-0.169,0.326-0.099,0.493c0.066,0.165,0.061,0.045,0.248,0.045h4.149c0.053,3.408,1.406,6.909,3.861,9.318
	c0.014,0.014,0.017,0.025,0.042,0.038l0.003,0.003l0.002,0.003l0.008,0.008l0.003,0.003l0.007,0.007l0.014,0.013
	c5.238,5.048,13.706,5.015,18.891-0.069C33.154,33.075,31.899,31.75,30.889,30.76z">
	<animateTransform  fill="remove" type="rotate" accumulate="none" calcMode="linear" dur="1.5s" from="0 25 25" restart="always" additive="replace" to="360 25 25" repeatCount="indefinite" attributeType="xml" attributeName="transform"></animateTransform>
	</path>
</svg>
